<?xml version="1.0" standalone="no"?>
<!DOCTYPE svg PUBLIC "-//W3C//DTD SVG 20010904//EN"
 "http://www.w3.org/TR/2001/REC-SVG-20010904/DTD/svg10.dtd">
<svg version="1.0" xmlns="http://www.w3.org/2000/svg"
 width="400.000000pt" height="400.000000pt" viewBox="0 0 400.000000 400.000000"
 preserveAspectRatio="xMidYMid meet">
<metadata>
Created by potrace 1.14, written by Peter Selinger 2001-2017
</metadata>
<g transform="translate(0.000000,400.000000) scale(0.100000,-0.100000)"
fill="#000000" stroke="none">
<path d="M0 3880 c0 -69 4 -121 10 -125 13 -8 13 -45 0 -45 -15 0 -13 -295 2
-320 10 -15 10 -24 1 -39 -14 -22 -17 -181 -3 -181 6 0 10 -11 10 -25 0 -14
-4 -25 -9 -25 -5 0 -10 -168 -10 -396 -1 -273 2 -394 9 -389 6 3 8 11 5 16 -4
5 -1 9 4 9 6 0 11 6 11 14 0 21 17 29 44 22 19 -5 23 -12 22 -43 -1 -28 -5
-37 -16 -35 -13 3 -13 2 0 -11 8 -8 30 -17 47 -20 26 -5 38 -1 59 18 41 38 53
32 59 -30 2 -27 -1 -35 -13 -36 -19 -1 -19 -2 -59 5 -15 3 -49 8 -75 11 -44 7
-69 27 -48 40 13 8 13 25 -1 25 -6 0 -13 -9 -16 -19 -3 -11 -11 -22 -19 -25
-17 -7 -19 -62 -1 -69 9 -4 9 -6 0 -6 -8 -1 -13 -15 -13 -35 0 -28 4 -34 19
-33 15 1 17 4 9 14 -8 10 -7 13 3 13 11 0 11 2 -1 10 -12 8 -10 10 10 9 28 -1
82 -16 63 -18 -7 -1 -13 -7 -13 -15 0 -8 6 -16 13 -19 9 -3 9 -7 -1 -20 -18
-21 -9 -34 27 -39 17 -2 28 -1 25 4 -3 4 -1 8 4 8 13 0 53 36 46 43 -7 7 30
19 47 15 9 -2 14 5 13 19 -1 14 3 20 12 16 16 -6 19 13 4 20 -6 3 -5 4 2 3 7
-1 14 -12 14 -24 1 -12 -2 -19 -6 -17 -4 3 -11 -2 -14 -11 -9 -24 -7 -29 6
-16 7 7 16 12 21 12 5 0 1 -7 -7 -16 -9 -8 -20 -13 -25 -9 -6 3 -15 -3 -20
-14 -8 -14 -8 -21 2 -24 9 -4 9 -6 0 -6 -16 -1 -17 -31 -1 -31 6 0 9 -2 6 -6
-10 -10 -158 -14 -158 -4 0 6 -11 10 -25 10 -24 0 -30 9 -26 39 2 7 -2 10 -8
6 -6 -3 -11 -12 -11 -20 0 -7 -7 -16 -16 -19 -11 -4 -15 -17 -13 -48 2 -24 8
-46 14 -50 6 -5 6 -8 -2 -8 -8 0 -13 -13 -13 -31 0 -35 23 -36 28 -1 2 13 11
22 20 22 10 0 13 3 7 8 -20 14 -13 28 13 26 65 -3 63 -2 46 -23 -9 -10 -17
-37 -18 -59 -2 -39 -2 -40 32 -38 22 1 39 8 46 20 13 22 50 66 42 50 -3 -6 1
-11 8 -11 9 0 13 12 12 33 -1 18 2 30 6 28 5 -3 8 0 8 6 0 7 -21 8 -67 4 -38
-4 -66 -4 -63 -1 3 3 30 8 60 11 30 4 67 9 83 12 16 3 27 1 27 -5 0 -6 -8 -11
-17 -12 -11 0 -13 -3 -6 -6 9 -3 9 -11 -3 -31 -12 -20 -12 -22 -1 -9 8 9 20
17 27 17 7 0 1 -10 -14 -21 -15 -12 -25 -28 -22 -35 3 -8 1 -14 -3 -14 -5 0
-8 -11 -7 -25 4 -32 -11 -43 -57 -47 -20 -1 -37 -6 -37 -10 0 -4 -13 -8 -30
-8 -16 0 -30 4 -30 9 0 4 -11 6 -24 4 -13 -3 -27 1 -31 8 -5 7 -4 10 3 6 6 -5
8 1 4 15 -5 21 -5 21 -13 1 -4 -12 -12 -24 -18 -28 -14 -8 -15 -175 -2 -175
12 0 25 21 26 40 0 8 15 22 33 32 26 13 30 17 15 20 -13 3 -11 5 9 10 25 5 26
3 16 -16 -14 -26 -17 -99 -5 -107 27 -19 120 63 99 87 -4 4 3 4 16 1 12 -3 20
-1 16 4 -3 5 0 9 7 9 7 0 9 -10 7 -25 -3 -14 -1 -25 6 -25 6 0 4 -4 -4 -10 -8
-5 -11 -12 -8 -16 11 -10 -18 -34 -42 -34 -13 0 -19 -4 -14 -12 4 -7 3 -8 -4
-4 -7 4 -22 0 -34 -8 -29 -20 -52 -21 -44 -1 7 20 -4 19 -19 -2 -15 -20 -39
-7 -32 18 3 12 0 19 -9 19 -13 0 -18 -12 -15 -33 1 -4 -6 -10 -14 -13 -12 -5
-15 -25 -15 -95 0 -49 3 -89 8 -89 18 1 30 17 34 45 2 22 9 31 26 33 24 4 32
-22 10 -31 -8 -3 -6 -6 5 -6 29 -2 19 -31 -15 -44 -18 -6 -36 -10 -41 -9 -4 1
-7 -9 -7 -23 0 -14 -4 -25 -10 -25 -15 0 -13 -147 3 -154 10 -5 10 -7 0 -12
-18 -8 -18 -360 0 -367 9 -3 9 -9 0 -26 -10 -15 -13 -113 -13 -391 l0 -370
2000 0 2000 0 -2 988 -3 987 -25 -1 c-14 -1 -28 4 -32 10 -5 6 -8 7 -8 1 0
-12 -62 -11 -81 0 -7 5 -22 9 -33 10 -95 11 -143 33 -132 61 3 8 0 11 -8 8
-22 -8 -6 55 16 67 15 8 19 8 14 0 -4 -6 -2 -11 4 -11 17 0 40 -26 32 -35 -4
-5 1 -5 10 -2 9 3 18 1 20 -4 2 -5 13 -11 26 -12 16 -1 21 -6 17 -17 -5 -12
-4 -13 6 -2 7 6 22 12 33 12 19 0 19 0 0 -22 l-19 -22 24 17 c23 15 25 15 39
-4 12 -17 16 -18 23 -8 6 10 9 11 9 2 0 -7 4 -13 10 -13 5 0 7 6 4 14 -3 8 0
17 6 21 6 3 10 3 9 -2 -3 -20 2 -29 21 -30 19 -2 20 7 19 660 -1 364 -3 654
-6 645 -5 -19 -23 -25 -23 -9 0 6 -16 3 -35 -5 -48 -20 -44 -9 5 16 22 11 40
26 40 33 0 8 4 7 10 -3 6 -10 10 91 10 295 -1 245 -3 307 -13 295 -7 -8 -20
-16 -30 -16 -14 -2 -15 1 -6 12 6 8 15 11 20 8 5 -3 9 4 9 16 0 12 5 18 10 15
5 -3 10 1 10 9 0 13 -228 15 -2000 15 l-2000 -1 0 -118z m3882 88 c-6 -6 -16
-7 -22 -3 -9 6 -9 9 1 16 17 10 34 0 21 -13z m-1685 -31 l83 -12 -5 -106 c-3
-60 -1 -118 5 -133 11 -30 8 -32 -25 -10 -21 13 -34 14 -95 5 -39 -6 -83 -19
-98 -29 -23 -15 -53 -17 -245 -16 -120 1 -239 5 -264 9 l-46 7 8 126 c4 70 8
132 8 139 0 11 35 18 142 26 107 9 459 5 532 -6z m1023 3 c0 -5 -7 -10 -16
-10 -8 0 -12 5 -9 10 3 6 10 10 16 10 5 0 9 -4 9 -10z m-632 -28 c4 -27 -47
-182 -60 -182 -4 0 -8 12 -8 26 0 26 18 145 26 172 6 22 39 9 42 -16z m-1374
3 c12 -32 19 -262 8 -269 -6 -3 -14 -1 -19 6 -12 20 -17 278 -5 278 5 0 13 -7
16 -15z m-1124 -5 c0 -5 -2 -10 -4 -10 -3 0 -8 5 -11 10 -3 6 -1 10 4 10 6 0
11 -4 11 -10z m3074 -9 c-19 -18 -49 -18 -38 0 3 5 10 7 15 4 5 -4 9 -1 9 4 0
6 8 11 17 11 15 0 14 -2 -3 -19z m56 -1 c0 -5 -5 -10 -11 -10 -5 0 -7 5 -4 10
3 6 8 10 11 10 2 0 4 -4 4 -10z m-2536 -26 c4 -10 1 -14 -6 -12 -15 5 -23 28
-10 28 5 0 13 -7 16 -16z m2067 -15 c-9 -22 -10 -22 -10 -3 -1 11 2 24 6 27
12 12 14 0 4 -24z m-121 -90 c0 -44 -4 -68 -10 -64 -17 10 -11 135 6 135 2 0
4 -32 4 -71z m-2010 40 c0 -6 -4 -7 -10 -4 -5 3 -10 11 -10 16 0 6 5 7 10 4 6
-3 10 -11 10 -16z m2610 11 c0 -5 -5 -10 -11 -10 -5 0 -7 5 -4 10 3 6 8 10 11
10 2 0 4 -4 4 -10z m-3131 -41 c6 -11 7 -19 3 -19 -9 0 -33 25 -47 48 -12 21
30 -7 44 -29z m3811 23 c0 -13 -36 -43 -43 -36 -10 10 12 44 28 44 8 0 15 -4
15 -8z m71 -25 c-8 -8 -11 -7 -11 4 0 20 13 34 18 19 3 -7 -1 -17 -7 -23z
m-21 -8 c0 -5 -4 -9 -10 -9 -5 0 -10 7 -10 16 0 8 5 12 10 9 6 -3 10 -10 10
-16z m-1270 -61 c-35 -63 -56 -76 -47 -29 9 41 37 80 60 81 15 0 13 -7 -13
-52z m1045 24 c-51 -46 -73 -57 -27 -13 24 22 47 41 50 41 4 0 -7 -12 -23 -28z
m152 -9 c-9 -9 -19 -14 -23 -11 -10 10 6 28 24 28 15 0 15 -1 -1 -17z m-727
-8 c0 -8 -9 -15 -20 -15 -22 0 -27 15 -7 23 21 9 27 7 27 -8z m-3072 -13 c2
-7 -3 -12 -12 -12 -9 0 -16 7 -16 16 0 17 22 14 28 -4z m592 2 c0 -14 -3 -14
-15 -4 -8 7 -15 14 -15 16 0 2 7 4 15 4 8 0 15 -7 15 -16z m2620 12 c0 -2 -3
-11 -6 -20 -9 -23 -23 -20 -21 4 1 11 7 20 14 20 7 0 13 -2 13 -4z m-2745 -26
c3 -5 1 -10 -4 -10 -6 0 -11 5 -11 10 0 6 2 10 4 10 3 0 8 -4 11 -10z m2355
-20 c0 -5 -5 -10 -11 -10 -5 0 -7 5 -4 10 3 6 8 10 11 10 2 0 4 -4 4 -10z m34
-22 c-24 -46 -55 -90 -61 -84 -5 5 65 116 73 116 3 0 -3 -15 -12 -32z m816 21
c0 -16 -29 -41 -40 -34 -5 3 -10 0 -10 -8 0 -7 -7 -14 -15 -14 -33 0 -11 38
25 44 8 1 16 7 18 12 5 14 22 14 22 0z m-3672 -18 c3 -8 -1 -12 -9 -9 -7 2
-15 10 -17 17 -3 8 1 12 9 9 7 -2 15 -10 17 -17z m142 -21 c0 -18 -19 -11 -30
11 -11 19 -10 20 9 9 12 -6 21 -15 21 -20z m2176 5 c-11 -8 -25 -15 -30 -15
-6 1 0 7 14 15 32 19 40 18 16 0z m-350 -34 c-14 -15 -26 -31 -26 -37 0 -5
-53 -36 -118 -69 -64 -33 -148 -81 -187 -108 l-70 -48 -80 3 -80 4 -3 35 c-7
68 8 158 28 169 11 6 124 11 259 13 133 1 241 5 241 10 0 4 -107 8 -237 8
-132 1 -225 5 -208 9 17 4 125 8 242 9 200 1 213 2 223 21 6 12 16 17 26 13
13 -5 11 -10 -10 -32z m834 35 c0 -11 -19 -15 -25 -6 -3 5 1 10 9 10 9 0 16
-2 16 -4z m-548 -27 c-13 -5 -21 -13 -18 -17 5 -8 -78 -32 -112 -32 -15 0 -15
2 1 18 22 22 70 38 116 39 31 1 33 0 13 -8z m518 -9 c0 -5 -5 -10 -11 -10 -5
0 -7 5 -4 10 3 6 8 10 11 10 2 0 4 -4 4 -10z m860 -2 c0 -11 -38 -48 -50 -48
-10 0 -3 27 11 46 10 13 39 14 39 2z m-3490 -33 c0 -7 3 -21 7 -31 6 -15 2
-14 -26 5 -25 18 -29 26 -21 36 13 16 40 9 40 -10z m957 -27 c-2 -13 -4 -5 -4
17 -1 22 1 32 4 23 2 -10 2 -28 0 -40z m53 36 c0 -8 -4 -12 -10 -9 -5 3 -10
10 -10 16 0 5 5 9 10 9 6 0 10 -7 10 -16z m59 -76 c-1 -62 -4 -85 -9 -68 -12
37 -12 160 0 160 6 0 10 -37 9 -92z m1641 82 c0 -5 -5 -10 -11 -10 -5 0 -7 5
-4 10 3 6 8 10 11 10 2 0 4 -4 4 -10z m-585 -49 c15 -31 65 -177 65 -193 0 -5
-30 -8 -66 -6 -74 3 -71 0 -118 122 -15 38 -23 72 -19 77 10 10 71 27 100 28
15 1 27 -9 38 -28z m809 10 c3 -5 -1 -12 -10 -15 -24 -9 -46 -7 -39 4 4 6 11
8 16 5 5 -4 9 -1 9 4 0 13 17 14 24 2z m-2478 -28 c-7 -7 -26 7 -26 19 0 6 6
6 15 -2 9 -7 13 -15 11 -17z m154 -29 c0 -8 -4 -12 -10 -9 -5 3 -10 10 -10 16
0 5 5 9 10 9 6 0 10 -7 10 -16z m2050 -4 c0 -5 -4 -10 -10 -10 -5 0 -10 5 -10
10 0 6 5 10 10 10 6 0 10 -4 10 -10z m44 -24 c-6 -16 -24 -23 -24 -8 0 10 22
33 27 28 2 -2 1 -11 -3 -20z m312 -4 c0 -10 -8 -18 -18 -18 -20 0 -24 11 -8
21 6 4 8 11 5 16 -3 5 0 6 7 4 8 -3 14 -13 14 -23z m701 6 c-3 -8 -6 -5 -6 6
-1 11 2 17 5 13 3 -3 4 -12 1 -19z m-647 -13 c0 -8 -4 -15 -10 -15 -5 0 -10 7
-10 15 0 8 5 15 10 15 6 0 10 -7 10 -15z m600 -7 c0 -6 -7 -20 -17 -30 -15
-17 -15 -18 8 -18 l23 0 -22 -22 c-16 -16 -25 -19 -33 -11 -7 7 -8 13 0 17 6
4 7 15 1 30 -5 15 -5 27 3 35 14 14 37 14 37 -1z m-954 -14 c-3 -9 -6 -18 -6
-20 0 -11 -19 -2 -24 12 -3 8 -2 12 4 9 6 -3 10 -1 10 4 0 6 5 11 11 11 6 0 8
-7 5 -16z m1044 1 c0 -8 -4 -15 -10 -15 -5 0 -7 7 -4 15 4 8 8 15 10 15 2 0 4
-7 4 -15z m-3115 -5 c3 -5 -1 -10 -9 -10 -9 0 -16 5 -16 10 0 6 4 10 9 10 6 0
13 -4 16 -10z m2406 -3 c-1 -12 -15 -9 -19 4 -3 6 1 10 8 8 6 -3 11 -8 11 -12z
m679 -1 c0 -14 -29 -30 -38 -21 -3 3 0 5 6 5 7 0 12 7 12 15 0 8 5 15 10 15 6
0 10 -6 10 -14z m-3402 -31 c-3 -3 -9 2 -12 12 -6 14 -5 15 5 6 7 -7 10 -15 7
-18z m752 -16 c0 -10 -4 -19 -10 -19 -5 0 -10 12 -10 26 0 14 4 23 10 19 6 -3
10 -15 10 -26z m-1221 -15 c3 -16 1 -17 -13 -5 -19 16 -21 34 -3 29 6 -3 14
-13 16 -24z m601 16 c0 -5 -6 -10 -14 -10 -8 0 -18 5 -21 10 -3 6 3 10 14 10
12 0 21 -4 21 -10z m-89 -33 c34 -43 45 -62 31 -53 -17 10 -75 86 -65 86 4 0
20 -15 34 -33z m249 -8 c0 -6 -4 -7 -10 -4 -5 3 -10 11 -10 16 0 6 5 7 10 4 6
-3 10 -11 10 -16z m2325 11 c3 -5 1 -10 -5 -10 -6 0 -18 -7 -26 -15 -21 -21
-33 -19 -27 4 4 17 16 25 45 30 4 0 10 -3 13 -9z m-2489 -37 c-8 -9 -46 18
-40 28 4 6 13 4 25 -7 11 -9 17 -19 15 -21z m2537 30 c-7 -2 -19 -2 -25 0 -7
3 -2 5 12 5 14 0 19 -2 13 -5z m515 -5 c-4 -11 -55 -46 -70 -47 -4 -1 5 12 20
28 27 30 57 41 50 19z m-3650 -16 c2 -7 -3 -12 -12 -12 -9 0 -16 7 -16 16 0
17 22 14 28 -4z m1527 -2 c-10 -11 -23 -20 -30 -20 -6 0 -30 -16 -53 -36 l-42
-36 0 41 c0 33 -4 40 -22 44 -13 2 14 5 59 6 45 0 85 6 88 11 3 6 9 10 12 10
3 0 -2 -9 -12 -20z m-1055 0 c0 -5 -2 -10 -4 -10 -3 0 -8 5 -11 10 -3 6 -1 10
4 10 6 0 11 -4 11 -10z m420 6 c0 -3 -4 -8 -10 -11 -5 -3 -10 -1 -10 4 0 6 5
11 10 11 6 0 10 -2 10 -4z m2002 -60 c1 -20 -2 -39 -5 -43 -4 -3 -7 15 -7 42
0 55 10 56 12 1z m903 25 c-6 -11 -65 -42 -65 -35 0 4 62 44 68 44 2 0 1 -4
-3 -9z m-145 -11 c0 -9 -45 -40 -59 -40 -5 0 -5 9 2 23 9 20 57 35 57 17z
m-3490 -10 c0 -5 -2 -10 -4 -10 -3 0 -8 5 -11 10 -3 6 -1 10 4 10 6 0 11 -4
11 -10z m625 -10 c3 -5 2 -10 -4 -10 -5 0 -13 5 -16 10 -3 6 -2 10 4 10 5 0
13 -4 16 -10z m1540 -5 c-16 -8 -39 -14 -50 -14 -13 0 -8 5 15 14 46 18 74 17
35 0z m820 5 c-3 -5 -10 -10 -16 -10 -5 0 -9 5 -9 10 0 6 7 10 16 10 8 0 12
-4 9 -10z m-3126 -61 c3 -11 -1 -10 -19 2 -13 9 -26 22 -29 30 -3 11 1 10 19
-2 13 -9 26 -22 29 -30z m3797 29 c7 -10 -20 -38 -38 -38 -12 0 -10 24 4 38
15 15 25 15 34 0z m-3256 -8 c0 -5 7 -10 15 -10 17 0 20 -16 5 -25 -5 -3 -10
-1 -10 4 0 6 -9 11 -20 11 -20 0 -26 11 -13 23 10 10 23 8 23 -3z m2590 3 c0
-5 -8 -17 -17 -28 -14 -18 -15 -18 -9 -2 3 10 6 23 6 28 0 5 5 9 10 9 6 0 10
-3 10 -7z m41 -30 c-9 -16 -10 -14 -11 12 0 21 3 26 11 18 8 -8 8 -16 0 -30z
m705 0 c-11 -11 -19 6 -11 24 8 17 8 17 12 0 3 -10 2 -21 -1 -24z m-2487 -17
c-5 -6 -9 -20 -9 -31 0 -13 -6 -22 -15 -22 -11 0 -12 4 -4 13 7 9 7 19 1 31
-7 11 -7 24 0 36 9 18 10 18 23 0 9 -11 10 -22 4 -27z m-635 -16 c6 -9 1 -5
-11 8 -13 13 -23 28 -23 35 0 7 6 3 12 -8 6 -11 16 -27 22 -35z m2286 30 c-8
-5 -18 -6 -24 -3 -5 4 -1 10 10 13 24 9 34 2 14 -10z m810 6 c0 -15 -18 -31
-26 -23 -7 7 7 37 17 37 5 0 9 -6 9 -14z m-971 -173 c0 -64 -3 -113 -8 -113
-14 0 -17 40 -12 170 5 143 18 105 20 -57z m721 157 c0 -5 -5 -10 -11 -10 -5
0 -7 5 -4 10 3 6 8 10 11 10 2 0 4 -4 4 -10z m184 -27 c-21 -15 -44 -17 -44
-3 0 14 32 29 48 22 12 -4 12 -8 -4 -19z m-3806 -7 c3 -12 -1 -17 -10 -14 -7
3 -15 13 -16 22 -3 12 1 17 10 14 7 -3 15 -13 16 -22z m2402 -6 c13 -8 13 -10
-2 -10 -9 0 -20 5 -23 10 -8 13 5 13 25 0z m1268 -12 c-2 -17 -11 -24 -31 -26
-30 -4 -33 -28 -3 -26 9 1 16 -1 16 -5 0 -8 -58 -41 -72 -41 -6 0 -7 8 -3 18
4 9 8 26 10 37 1 11 3 24 4 28 1 8 58 36 74 37 5 0 7 -10 5 -22z m-730 -122
c-2 -79 -6 -103 -15 -98 -9 5 -10 38 -6 121 8 143 25 124 21 -23z m189 118
c-3 -3 -12 -4 -19 -1 -8 3 -5 6 6 6 11 1 17 -2 13 -5z m-3129 -21 c6 -19 -25
-16 -32 3 -4 11 -1 14 11 12 9 -2 18 -9 21 -15z m1322 11 c0 -8 -19 -13 -24
-6 -3 5 1 9 9 9 8 0 15 -2 15 -3z m1755 -4 c6 -10 -24 -50 -37 -50 -12 0 -9
35 4 48 14 14 25 15 33 2z m-2285 -35 c0 -9 -6 -12 -15 -9 -8 4 -15 10 -15 15
0 5 7 9 15 9 8 0 15 -7 15 -15z m3017 0 c0 -8 -4 -12 -9 -9 -5 3 -6 10 -3 15
9 13 12 11 12 -6z m-3297 -11 c0 -8 -4 -12 -10 -9 -5 3 -10 10 -10 16 0 5 5 9
10 9 6 0 10 -7 10 -16z m81 0 c12 -14 11 -16 -5 -13 -11 2 -21 10 -24 17 -5
17 13 15 29 -4z m-441 -13 c14 -27 -3 -34 -23 -10 -21 24 -21 29 -2 29 8 0 19
-9 25 -19z m1208 -37 c44 -21 51 -28 41 -40 -9 -12 -9 -13 3 -9 10 4 17 -1 21
-14 3 -12 13 -21 22 -21 11 0 15 5 11 15 -3 9 0 15 9 15 8 0 15 6 16 13 0 10
2 10 6 0 2 -7 11 -13 19 -13 16 0 16 1 19 -105 2 -44 8 -93 14 -108 6 -16 9
-33 6 -38 -4 -5 -8 -18 -10 -29 -3 -17 0 -20 16 -15 28 9 81 -34 113 -91 15
-26 25 -52 23 -58 -2 -6 -13 8 -25 30 -12 23 -33 56 -48 73 l-27 32 -15 -22
c-11 -17 -12 -24 -4 -27 7 -2 10 -8 6 -13 -3 -5 2 -19 10 -31 9 -12 16 -27 16
-32 0 -6 -7 0 -16 12 -8 12 -20 22 -27 22 -7 0 -5 -6 5 -16 12 -12 14 -24 8
-50 -4 -19 -5 -34 -1 -34 3 0 -1 -5 -10 -10 -25 -15 -16 -136 13 -167 12 -12
25 -23 30 -23 5 0 28 -21 51 -46 23 -26 61 -67 84 -92 23 -25 40 -49 37 -54
-3 -4 2 -5 11 -2 9 4 15 3 13 -2 -1 -5 3 -23 9 -41 15 -42 63 -67 115 -60 21
3 36 2 33 -2 -4 -7 71 -83 201 -202 21 -20 44 -51 51 -68 6 -17 10 -31 9 -31
-2 0 -15 19 -30 43 -36 55 -72 83 -90 68 -11 -9 -11 -18 -1 -48 19 -56 12 -63
-61 -63 l-64 0 -1 68 c-1 37 -5 99 -9 137 -6 61 -7 52 -8 -68 l-2 -138 -47 3
c-48 3 -74 27 -31 29 20 1 20 2 -6 9 -33 10 -55 2 -35 -12 11 -7 9 -8 -4 -4
-10 3 -23 6 -28 6 -5 0 -9 14 -9 30 0 23 -4 30 -20 30 -11 0 -23 1 -27 3 -5 1
-10 -18 -13 -43 l-5 -45 -65 -2 c-36 -1 -85 1 -110 4 -42 5 -43 6 -25 19 17
13 18 16 5 24 -11 7 -8 10 15 10 17 0 40 3 53 6 18 5 22 2 22 -15 0 -11 5 -21
10 -21 6 0 10 9 10 20 0 11 6 20 13 21 6 0 -10 9 -38 20 -27 11 -54 24 -60 29
-5 4 -25 11 -44 15 -45 10 -68 30 -43 40 16 6 16 7 1 18 -9 7 -18 21 -20 32
-3 12 -14 21 -27 23 -20 3 -23 8 -18 28 4 15 -1 39 -14 65 -39 75 -25 297 22
363 19 26 19 30 4 38 -31 17 -16 35 42 49 51 12 54 14 25 17 -18 2 -33 7 -33
13 0 13 54 11 69 -3 8 -7 6 -1 -4 15 -9 15 -21 27 -26 27 -5 0 -9 6 -9 13 0 7
-7 22 -15 33 -11 13 -13 14 -9 3 4 -12 -3 -18 -22 -23 -29 -8 -39 -3 -30 12 3
6 14 8 24 5 12 -3 18 2 19 16 1 16 -4 21 -23 21 -26 0 -31 9 -13 27 22 22 64
-6 105 -68 21 -33 40 -56 42 -50 2 5 -2 19 -8 31 -6 11 -9 24 -6 28 7 11 -38
62 -54 62 -9 0 -8 5 3 18 13 14 16 30 12 68 -9 77 -27 154 -37 154 -5 0 -6 -4
-3 -10 8 -14 2 -13 -31 6 -29 15 -29 15 -4 13 42 -2 46 0 46 25 0 21 -3 23
-24 15 -13 -5 -28 -6 -34 -3 -6 4 -21 8 -34 10 -16 1 -21 -2 -17 -12 10 -27
-22 -14 -39 17 -10 17 -12 27 -5 23 9 -6 -19 31 -43 56 -3 3 -6 10 -7 15 -1 6
-5 19 -9 30 -8 19 -7 20 16 2 14 -10 49 -29 78 -43z m2442 14 c-1 -8 -6 -6
-15 7 -13 17 -19 18 -45 8 -40 -15 -38 -6 2 11 26 11 34 11 45 1 7 -8 13 -20
13 -27z m-2895 22 c3 -6 -1 -7 -9 -4 -18 7 -21 14 -7 14 6 0 13 -4 16 -10z
m-824 -17 c13 -16 12 -17 -3 -4 -10 7 -18 15 -18 17 0 8 8 3 21 -13z m3809 7
c0 -5 -7 -10 -15 -10 -8 0 -15 5 -15 10 0 6 7 10 15 10 8 0 15 -4 15 -10z
m-3135 -28 c-8 -8 -25 10 -19 20 4 6 9 5 15 -3 4 -7 6 -15 4 -17z m2385 18 c0
-5 -4 -10 -10 -10 -5 0 -10 5 -10 10 0 6 5 10 10 10 6 0 10 -4 10 -10z m-3105
-30 c3 -6 -1 -7 -9 -4 -18 7 -21 14 -7 14 6 0 13 -4 16 -10z m3115 3 c0 -10
-20 -40 -20 -31 0 3 -3 13 -6 22 -4 11 -1 16 10 16 9 0 16 -3 16 -7z m490 -8
c-7 -8 -17 -15 -23 -15 -6 0 -2 7 9 15 25 19 30 19 14 0z m-3080 -16 c0 -11
-4 -17 -10 -14 -5 3 -10 13 -10 21 0 8 5 14 10 14 6 0 10 -9 10 -21z m-560
-11 c0 -13 -23 -5 -28 10 -2 7 2 10 12 6 9 -3 16 -11 16 -16z m593 -9 c-7 -27
-23 -24 -23 6 0 17 4 23 14 19 8 -3 12 -13 9 -25z m287 11 c0 -5 -4 -10 -10
-10 -5 0 -10 5 -10 10 0 6 5 10 10 10 6 0 10 -4 10 -10z m563 -10 c-3 -11 -7
-20 -9 -20 -2 0 -4 9 -4 20 0 11 4 20 9 20 5 0 7 -9 4 -20z m1757 10 c0 -5 -7
-10 -15 -10 -8 0 -15 5 -15 10 0 6 7 10 15 10 8 0 15 -4 15 -10z m-775 -9 c14
-6 1 -10 -45 -13 -72 -6 -84 -3 -49 11 29 12 67 12 94 2z m645 -11 c0 -5 -7
-10 -16 -10 -8 0 -12 5 -9 10 3 6 10 10 16 10 5 0 9 -4 9 -10z m68 -2 c-6 -18
-28 -21 -28 -4 0 9 7 16 16 16 9 0 14 -5 12 -12z m542 -8 c0 -5 -4 -10 -10
-10 -5 0 -10 -6 -10 -14 0 -19 -12 -26 -50 -31 -29 -3 -38 4 -22 19 4 4 7 13
7 19 0 7 10 12 23 11 12 0 22 3 22 8 0 4 9 8 20 8 11 0 20 -4 20 -10z m-2780
-22 c0 -6 -6 -5 -15 2 -8 7 -15 14 -15 16 0 2 7 1 15 -2 8 -4 15 -11 15 -16z
m2170 -13 c0 -8 -9 -15 -20 -15 -22 0 -27 15 -7 23 21 9 27 7 27 -8z m-2946
-5 c17 -6 26 -17 26 -30 0 -28 -32 -23 -45 7 -5 12 -16 24 -25 27 -12 3 -12 4
2 5 9 0 28 -3 42 -9z m726 -35 c0 -29 3 -33 23 -29 12 2 16 2 10 -2 -19 -9
-17 -94 2 -94 8 0 15 -5 15 -11 0 -6 -7 -9 -15 -5 -26 10 -17 -33 13 -59 15
-13 23 -27 19 -31 -4 -5 -11 -3 -15 3 -5 8 -13 9 -22 3 -13 -8 -11 -12 8 -25
28 -20 30 -40 2 -25 -18 10 -20 8 -20 -25 0 -29 4 -35 23 -36 l22 -2 -22 -4
c-15 -3 -23 -12 -23 -24 0 -10 -7 -19 -15 -19 -13 0 -15 -24 -15 -155 0 -160
2 -166 41 -145 16 9 19 22 19 79 0 52 -4 70 -15 75 -16 6 -20 53 -6 75 17 26
27 -20 30 -131 3 -105 2 -108 -19 -108 -11 0 -19 -4 -16 -9 8 -12 8 -66 2
-179 -3 -51 -8 -226 -12 -390 -4 -163 -8 -299 -10 -301 -2 -2 -5 40 -6 95 -2
68 -4 43 -8 -81 -3 -125 -8 16 -14 466 -8 640 -2 1144 15 1133 5 -3 9 -20 9
-39z m130 23 c0 -4 -5 -8 -11 -8 -17 0 -1 -131 19 -154 16 -18 16 -19 0 -13
-15 5 -18 1 -18 -23 0 -17 5 -30 10 -30 6 0 10 -5 10 -11 0 -5 -4 -7 -10 -4
-5 3 -10 2 -10 -4 0 -5 8 -15 18 -20 15 -9 15 -12 2 -21 -12 -8 -13 -13 -2
-30 7 -12 8 -20 2 -20 -5 0 -10 -24 -10 -54 0 -45 -3 -54 -20 -59 -11 -3 -22
-2 -25 3 -2 4 -2 109 2 233 6 211 7 225 25 224 10 -1 18 -5 18 -9z m-251 -210
c6 11 14 8 35 -11 14 -13 26 -27 26 -31 0 -13 -31 -5 -37 10 -4 11 -13 14 -30
9 l-25 -6 6 78 c3 43 6 98 8 123 1 25 4 -7 5 -70 2 -66 7 -109 12 -102z m31
182 c6 -11 9 -20 7 -20 -2 0 -12 9 -22 20 -10 11 -13 20 -7 20 6 0 16 -9 22
-20z m137 14 c-3 -3 -12 -4 -19 -1 -8 3 -5 6 6 6 11 1 17 -2 13 -5z m2753 -4
c0 -5 -2 -10 -4 -10 -3 0 -8 5 -11 10 -3 6 -1 10 4 10 6 0 11 -4 11 -10z
m-480 -9 c0 -11 -39 -25 -47 -18 -3 3 -2 10 2 16 8 13 45 15 45 2z m37 3 c-3
-3 -12 -4 -19 -1 -8 3 -5 6 6 6 11 1 17 -2 13 -5z m633 2 c0 -3 -4 -8 -10 -11
-5 -3 -10 -1 -10 4 0 6 5 11 10 11 6 0 10 -2 10 -4z m-500 -28 c0 -5 5 -6 10
-3 6 4 10 -22 10 -69 0 -74 -1 -76 -25 -76 -25 0 -25 1 -25 85 0 71 2 83 15
79 8 -4 15 -10 15 -16z m-2740 -9 c0 -11 -27 -12 -34 0 -3 4 -3 11 0 14 8 8
34 -3 34 -14z m385 11 c3 -5 1 -10 -4 -10 -6 0 -11 5 -11 10 0 6 2 10 4 10 3
0 8 -4 11 -10z m61 -205 c3 -93 8 -186 11 -205 l7 -35 7 50 c4 28 8 111 8 185
2 200 21 141 25 -75 2 -96 6 -178 9 -182 4 -3 7 52 7 123 0 160 11 283 21 239
4 -16 8 -73 9 -125 l3 -95 8 88 c4 49 10 91 13 95 3 3 7 -35 7 -84 1 -81 2
-85 9 -41 11 65 20 71 20 15 0 -25 3 -61 7 -79 7 -33 7 -33 14 -9 4 16 7 -5 8
-55 1 -47 5 -75 10 -67 9 15 21 -54 21 -124 0 -39 -14 -67 -22 -45 -1 5 -16
11 -33 13 -16 2 -37 9 -45 17 -13 13 -16 9 -21 -35 l-6 -49 -1 48 c-1 32 -7
50 -17 53 -11 4 -15 21 -15 56 0 30 -4 47 -10 43 -6 -4 -10 -54 -10 -117 0
-93 2 -109 15 -105 8 4 38 0 67 -7 29 -8 70 -17 91 -20 34 -6 37 -9 37 -41 0
-19 -4 -35 -10 -35 -5 0 -10 13 -10 29 0 34 -10 44 -30 30 -12 -7 -11 -9 4 -9
17 0 18 -6 12 -61 -3 -34 -6 -71 -7 -83 0 -21 -1 -21 -9 -1 -7 15 -9 8 -11
-30 -1 -27 -4 -40 -6 -27 -8 39 -23 13 -24 -41 l-1 -52 -13 50 -13 50 -3 -75
-4 -75 -11 95 -11 95 -3 -75 c-1 -41 -5 -100 -9 -130 -6 -47 -8 -34 -15 90
-10 153 -23 161 -26 15 -1 -44 -5 -100 -9 -125 -6 -34 -9 -8 -10 100 -2 143
-10 196 -25 172 -4 -6 -11 -120 -16 -253 -5 -132 -10 -243 -13 -245 -2 -2 -7
110 -11 248 -4 139 -8 259 -9 266 0 6 -6 12 -12 12 -14 0 -12 25 -21 -275 -5
-137 -10 -241 -13 -230 -4 11 -8 -29 -11 -90 -3 -64 -8 75 -13 329 -4 242 -4
442 -1 445 3 3 10 -2 15 -11 8 -15 13 -16 29 -6 16 10 22 9 33 -5 9 -14 20
-17 40 -12 26 7 27 10 27 66 0 44 -4 61 -15 65 -11 5 -15 21 -15 60 0 47 -2
54 -20 54 -18 0 -20 7 -20 73 0 39 3 144 7 231 8 205 23 176 29 -59z m354 180
c0 -5 -5 -3 -10 5 -5 8 -10 20 -10 25 0 6 5 3 10 -5 5 -8 10 -19 10 -25z
m1820 25 c0 -5 -4 -10 -9 -10 -6 0 -13 5 -16 10 -3 6 1 10 9 10 9 0 16 -4 16
-10z m70 -71 l0 -80 -27 3 c-28 3 -28 4 -29 73 0 71 4 78 49 84 4 1 7 -35 7
-80z m-150 31 c0 -28 -13 -40 -24 -22 -7 12 5 52 15 52 5 0 9 -13 9 -30z m60
15 c0 -8 -7 -15 -15 -15 -16 0 -20 12 -8 23 11 12 23 8 23 -8z m-3200 -21 c0
-8 -4 -12 -10 -9 -5 3 -10 10 -10 16 0 5 5 9 10 9 6 0 10 -7 10 -16z m590 -18
c7 -9 8 -16 3 -16 -14 0 -53 30 -53 41 0 12 32 -4 50 -25z m200 -8 c0 -5 -9
-4 -20 2 -11 6 -20 18 -20 27 0 14 2 14 20 -2 11 -10 20 -22 20 -27z m2280 18
c0 -8 -9 -14 -19 -13 -15 1 -17 4 -9 14 14 17 28 16 28 -1z m-2387 -310 c-4
-296 -2 -329 22 -320 21 9 48 -22 40 -46 -4 -13 -2 -20 6 -20 8 0 5 -7 -6 -20
-20 -22 -14 -26 16 -10 13 7 19 7 19 0 0 -5 -6 -10 -14 -10 -7 0 -19 -7 -26
-15 -14 -17 0 -21 17 -4 7 7 13 8 17 0 4 -6 -4 -13 -19 -17 -14 -3 -25 -10
-25 -16 0 -5 10 -7 23 -3 l22 6 -23 -20 c-15 -13 -18 -21 -10 -24 10 -4 10 -7
0 -15 -8 -5 -13 -13 -12 -18 7 -29 -14 -684 -21 -673 -5 8 -10 127 -11 264
l-2 250 -6 -240 c-6 -287 -17 -259 -25 65 -7 271 5 1214 15 1185 4 -10 5 -145
3 -299z m3157 304 c0 -5 -7 -10 -16 -10 -8 0 -12 5 -9 10 3 6 10 10 16 10 5 0
9 -4 9 -10z m-3840 -24 c0 -3 -4 -8 -10 -11 -5 -3 -10 -1 -10 4 0 6 5 11 10
11 6 0 10 -2 10 -4z m788 -61 c-7 -7 -58 45 -58 60 0 5 14 -5 32 -22 18 -18
29 -35 26 -38z m2292 56 c0 -6 -5 -13 -10 -16 -15 -9 -43 3 -35 15 8 13 45 13
45 1z m-2545 -11 c3 -6 -1 -7 -9 -4 -18 7 -21 14 -7 14 6 0 13 -4 16 -10z
m2665 5 c0 -3 -12 -10 -27 -16 -22 -8 -24 -12 -13 -19 13 -9 13 -10 0 -10 -13
0 -13 -1 0 -10 13 -8 12 -10 -4 -10 -13 0 -16 -5 -12 -16 7 -19 -21 -57 -35
-48 -5 3 -6 11 -2 17 12 19 11 51 -1 60 -8 6 -7 10 2 14 6 2 9 10 5 16 -3 7
-3 9 1 5 4 -3 24 0 44 7 21 8 38 14 40 14 1 1 2 -1 2 -4z m-1768 -27 c-9 -9
-15 -9 -24 0 -9 9 -7 12 12 12 19 0 21 -3 12 -12z m1508 -104 c0 -73 -3 -94
-14 -94 -11 0 -11 10 -4 53 6 28 8 73 5 99 -2 26 0 45 5 42 4 -3 8 -48 8 -100z
m-652 -6 c74 -62 181 -39 245 52 9 13 17 20 17 15 0 -21 -63 -86 -97 -100 -42
-18 -116 -19 -146 -4 -37 20 -77 71 -77 98 1 26 1 26 14 -4 7 -17 27 -43 44
-57z m907 -212 c-9 -7 -32 -10 -53 -7 l-37 6 33 3 c17 2 32 6 33 10 0 4 2 22
3 40 2 17 1 32 -3 32 -16 -1 -32 -19 -34 -39 -1 -14 -7 -20 -17 -18 -18 3 -18
90 0 112 10 12 9 15 -6 15 -17 0 -17 1 1 14 11 7 35 17 52 20 31 7 32 10 27
43 -3 19 -2 42 3 51 5 10 9 -42 11 -127 2 -122 0 -145 -13 -155z m580 284 c-3
-5 -12 -10 -18 -10 -7 0 -6 4 3 10 19 12 23 12 15 0z m-3197 -24 c24 -8 26
-14 13 -35 -14 -22 -51 4 -51 37 0 15 4 22 8 16 4 -6 17 -14 30 -18z m852 14
c0 -5 -7 -10 -15 -10 -8 0 -15 5 -15 10 0 6 7 10 15 10 8 0 15 -4 15 -10z
m1640 -25 c0 -17 -2 -18 -25 -9 -13 5 -14 8 -3 15 19 13 28 11 28 -6z m4 -41
c3 -8 2 -14 -2 -15 -4 0 -15 -2 -24 -4 -19 -4 -24 10 -8 20 6 4 8 11 5 16 -3
5 1 6 9 3 8 -3 17 -12 20 -20z m-2549 6 c3 -5 -1 -10 -9 -10 -9 0 -16 5 -16
10 0 6 4 10 9 10 6 0 13 -4 16 -10z m246 -65 c29 -9 24 -35 -6 -33 -24 2 -25
5 -23 58 1 42 2 46 5 18 3 -26 10 -39 24 -43z m2779 71 c0 -3 -4 -8 -10 -11
-5 -3 -10 -1 -10 4 0 6 5 11 10 11 6 0 10 -2 10 -4z m-3189 -16 c5 0 9 -26 9
-59 0 -55 -2 -59 -25 -63 -25 -5 -25 -4 -25 64 0 60 2 69 16 64 9 -3 20 -6 25
-6z m1381 -22 c34 -24 48 -40 48 -56 0 -30 -31 -26 -45 6 -5 12 -15 22 -21 22
-7 0 -19 11 -28 25 -30 46 -19 47 46 3z m-1292 -14 c0 -12 5 -26 10 -29 6 -4
4 -12 -5 -21 -8 -9 -13 -20 -10 -25 4 -5 -7 -9 -23 -9 -36 0 -45 18 -36 75 5
39 7 41 35 37 22 -3 29 -9 29 -28z m3384 24 c-3 -4 0 -8 5 -8 6 0 11 6 11 13
0 6 5 4 11 -6 14 -24 1 -41 -18 -22 -12 12 -18 13 -29 4 -16 -13 -8 -33 9 -22
8 5 8 2 0 -9 -7 -8 -10 -17 -7 -20 4 -5 -140 -44 -186 -51 -8 -2 -20 -6 -26
-9 -7 -5 -11 6 -11 30 0 20 -2 43 -4 51 -2 9 6 17 21 21 34 9 70 0 70 -16 0
-17 5 -17 32 -3 12 6 18 7 14 1 -3 -5 4 -12 15 -15 19 -5 20 -2 15 28 -5 22
-2 35 6 38 20 8 77 4 72 -5z m-3289 -8 c8 -13 -15 -13 -35 0 -12 8 -11 10 7
10 12 0 25 -4 28 -10z m3005 -15 c0 -8 -4 -16 -8 -19 -4 -2 -8 6 -8 19 0 13 4
21 8 19 4 -3 8 -11 8 -19z m-3037 -35 c-3 -11 -9 -20 -13 -20 -5 0 -6 9 -3 20
3 11 9 20 13 20 5 0 6 -9 3 -20z m74 -5 c0 -8 -6 -15 -14 -15 -14 0 -17 12 -6
23 11 11 20 8 20 -8z m3293 -6 c0 -5 -4 -9 -10 -9 -5 0 -13 -1 -17 -2 -3 -2
-7 4 -8 13 -2 12 3 15 16 12 10 -3 19 -9 19 -14z m-2279 -26 c13 -16 12 -17
-3 -4 -10 7 -18 15 -18 17 0 8 8 3 21 -13z m-821 -58 c0 -3 -7 -5 -15 -5 -8 0
-15 -7 -15 -15 0 -8 7 -15 15 -15 8 0 15 -6 15 -14 0 -15 -22 -26 -48 -25 -11
0 -12 2 -4 6 8 3 12 27 12 71 l0 67 20 -33 c11 -18 20 -35 20 -37z m-180 35
c0 -4 -10 -6 -22 -5 -30 3 -30 3 -24 14 7 10 46 3 46 -9z m2760 -116 l0 -136
-27 7 c-16 3 -60 22 -100 41 -39 19 -76 34 -80 34 -18 0 -56 49 -50 64 9 24
54 20 60 -4 4 -15 13 -20 39 -18 l33 1 -35 5 -35 5 35 8 c33 6 34 7 11 14 -23
8 -23 8 10 19 59 20 69 12 70 -58 1 -101 17 -114 18 -13 1 80 3 87 21 87 17 0
20 7 20 40 0 22 2 40 5 40 3 0 5 -61 5 -136z m-2864 108 c8 9 37 -20 40 -38 1
-8 -4 -14 -12 -14 -11 0 -14 -10 -10 -41 4 -29 2 -39 -7 -36 -16 5 -21 55 -8
71 8 9 7 18 -4 32 -13 17 -14 11 -15 -58 0 -43 4 -78 9 -78 16 0 20 -40 4 -49
-13 -7 -13 -9 1 -14 11 -4 16 -19 16 -45 0 -35 -3 -40 -32 -50 l-33 -10 36 -1
c35 -1 36 -2 33 -37 -3 -45 -7 -48 -57 -53 -4 -1 -7 -21 -6 -45 2 -25 6 -43
11 -40 22 14 48 12 49 -4 0 -9 2 -27 3 -39 2 -13 -2 -23 -9 -23 -29 0 -55 -41
-55 -86 0 -42 1 -44 21 -34 54 29 61 -35 9 -79 -25 -21 -33 -36 -37 -73 -3
-26 -2 -59 2 -75 l7 -28 14 26 c7 15 20 29 29 33 12 4 15 -2 15 -30 0 -23 -5
-37 -17 -41 -43 -17 -53 -40 -53 -128 0 -71 2 -83 15 -79 10 4 15 0 15 -10 0
-9 -7 -19 -15 -22 -9 -4 -15 -20 -16 -43 0 -20 -3 -31 -5 -24 -3 7 -11 10 -18
7 -8 -3 -17 3 -21 13 -5 10 -11 137 -15 283 l-6 265 -2 -200 c-2 -220 -9 -308
-24 -298 -6 3 -14 0 -17 -6 -11 -17 -20 812 -12 934 7 91 8 94 9 33 2 -54 5
-68 17 -68 9 0 20 -10 25 -22 7 -19 9 -20 9 -4 1 12 6 16 16 13 8 -4 17 -2 20
3 4 6 17 10 31 10 l24 0 0 163 c0 104 4 157 10 147 5 -8 12 -11 16 -8z m944 8
c0 -5 -9 -10 -20 -10 -11 0 -20 5 -20 10 0 6 9 10 20 10 11 0 20 -4 20 -10z
m-532 -24 c3 -13 -1 -17 -14 -14 -11 2 -20 11 -22 22 -3 13 1 17 14 14 11 -2
20 -11 22 -22z m2665 11 c-3 -5 -12 -6 -20 -3 -9 4 -22 1 -29 -5 -9 -7 -14 -8
-14 -1 0 6 6 13 13 15 19 8 56 4 50 -6z m204 -13 c-3 -3 -12 -4 -19 -1 -8 3
-5 6 6 6 11 1 17 -2 13 -5z m-3752 -15 c11 -16 1 -19 -13 -3 -7 8 -8 14 -3 14
5 0 13 -5 16 -11z m3640 1 c-3 -5 -10 -10 -16 -10 -5 0 -9 5 -9 10 0 6 7 10
16 10 8 0 12 -4 9 -10z m42 4 c-3 -3 -12 -4 -19 -1 -8 3 -5 6 6 6 11 1 17 -2
13 -5z m-620 -41 c0 -20 -24 -15 -30 6 -3 11 -3 22 0 25 7 7 30 -16 30 -31z
m541 31 c-4 -3 -21 -8 -40 -11 -18 -2 -37 -9 -43 -15 -7 -8 -6 -9 2 -4 6 3 19
3 28 0 16 -6 16 -8 1 -16 -9 -5 -14 -13 -11 -19 4 -5 1 -9 -6 -9 -8 0 -9 -3 0
-13 8 -11 7 -18 -7 -29 -26 -23 -46 -33 -38 -20 7 11 -6 17 -27 13 -5 -1 -1 9
7 21 22 31 20 45 -3 24 -11 -10 -21 -13 -25 -7 -4 5 -2 13 4 16 8 5 8 11 0 20
-15 18 7 32 23 16 9 -9 7 -11 -8 -5 -17 6 -18 5 -7 -7 7 -8 17 -15 22 -15 6
-1 15 -2 21 -3 5 0 7 -6 3 -13 -5 -7 -3 -8 6 -3 10 6 10 11 -4 20 -22 17 -10
44 23 51 14 3 31 7 36 9 17 6 49 5 43 -1z m-2638 -26 c0 -13 3 -40 6 -60 5
-31 4 -38 -10 -38 -13 0 -16 11 -16 60 0 33 4 60 10 60 6 0 10 -10 10 -22z
m2802 -23 c13 1 29 4 35 8 14 9 29 -10 38 -45 6 -23 4 -26 -14 -21 -12 3 -18
10 -14 17 3 6 0 5 -8 -2 -11 -10 -11 -14 -1 -21 9 -6 8 -12 -6 -25 -21 -18
-43 -24 -112 -30 -25 -2 -63 -8 -84 -12 -26 -4 -37 -3 -33 4 4 5 0 13 -9 16
-8 3 -13 10 -10 14 3 5 7 21 10 36 6 34 4 32 41 40 22 5 26 4 15 -4 -12 -8
-11 -10 6 -10 12 0 28 -10 37 -22 13 -20 18 -22 37 -10 12 8 19 9 16 3 -4 -5
2 -9 14 -8 23 1 27 15 6 23 -8 3 -13 13 -11 22 2 9 4 26 5 37 0 17 2 17 10 5
5 -9 19 -15 32 -15z m-3029 -110 c3 -38 9 -78 13 -89 5 -14 3 -17 -10 -15 -9
2 -17 7 -17 12 1 4 1 44 1 89 0 98 6 99 13 3z m3133 26 c2 -7 0 -7 -3 -1 -3 7
-10 5 -18 -6 -8 -11 -19 -15 -30 -11 -13 6 -15 10 -6 20 13 17 54 15 57 -2z
m-2600 -57 c-4 -18 -10 -34 -15 -34 -8 0 -4 53 6 80 9 26 16 -7 9 -46z m2194
52 c0 -2 -7 -7 -16 -10 -8 -3 -12 -2 -9 4 6 10 25 14 25 6z m64 -27 c24 3 29
0 19 -10 -8 -8 -17 -7 -32 3 -12 8 -18 18 -14 22 4 3 10 1 13 -5 4 -6 10 -10
14 -10z m-18 -26 c-2 -2 -13 0 -25 6 -13 7 -22 8 -26 1 -3 -5 -12 -10 -18 -10
-7 0 -4 5 6 11 9 6 15 14 12 19 -3 5 9 2 25 -7 17 -8 29 -17 26 -20z m-3506
-30 c0 -7 5 -13 12 -13 6 0 9 -3 6 -6 -3 -3 -14 -1 -25 4 -10 6 -34 15 -53 20
l-35 11 48 -2 c31 0 47 -5 47 -14z m3730 5 c0 -6 -25 -8 -60 -6 -46 2 -57 0
-45 -8 15 -11 10 -24 -8 -24 -6 0 -7 3 -4 7 10 9 -14 34 -26 26 -5 -3 -7 -2
-4 4 8 13 147 14 147 1z m44 0 c-3 -4 -11 -5 -19 -1 -21 7 -19 12 4 10 11 0
18 -5 15 -9z m-3686 -5 c-10 -2 -28 -2 -40 0 -13 2 -5 4 17 4 22 1 32 -1 23
-4z m3440 1 c12 -4 22 -11 22 -16 0 -6 -8 -7 -17 -4 -17 6 -17 5 -1 -7 15 -12
15 -14 0 -25 -9 -7 -11 -10 -4 -7 9 5 10 1 1 -19 -11 -23 -13 -23 -29 -8 -23
23 -32 62 -15 62 8 0 17 4 20 10 3 6 -1 7 -9 4 -9 -3 -16 -1 -16 5 0 12 14 14
48 5z m-72 -33 c-4 -6 -13 -11 -19 -11 -8 0 -7 3 2 9 8 5 10 14 6 22 -6 11 -5
11 5 2 7 -6 9 -16 6 -22z m311 3 c9 -8 22 -13 30 -10 8 3 18 -4 25 -18 7 -16
16 -22 26 -19 9 4 13 2 9 -4 -4 -6 -1 -14 5 -17 7 -3 -4 -4 -24 -2 -21 2 -38
-1 -38 -7 0 -6 -5 -5 -13 1 -7 6 -22 9 -34 6 -15 -4 -23 0 -28 15 -3 12 -11
21 -16 21 -5 0 -2 11 7 25 19 29 29 31 51 9z m-1639 -79 c-3 -3 -9 2 -12 12
-6 14 -5 15 5 6 7 -7 10 -15 7 -18z m31 -80 c0 -5 -6 1 -14 15 -8 14 -14 30
-14 35 0 6 6 -1 14 -15 8 -14 14 -29 14 -35z m-1661 8 c-10 -2 -28 -2 -40 0
-13 2 -5 4 17 4 22 1 32 -1 23 -4z m-15 -30 c-7 -2 -19 -2 -25 0 -7 3 -2 5 12
5 14 0 19 -2 13 -5z m1735 -159 c11 -44 23 -88 27 -99 6 -19 6 -19 -5 -2 -10
16 -51 151 -67 222 -12 54 28 -53 45 -121z m-808 27 c0 -11 -26 -22 -34 -14
-12 12 -5 23 14 23 11 0 20 -4 20 -9z m2370 -41 c0 -5 -2 -10 -4 -10 -3 0 -8
5 -11 10 -3 6 -1 10 4 10 6 0 11 -4 11 -10z m-2380 -10 c0 -5 -7 -10 -15 -10
-8 0 -15 5 -15 10 0 6 7 10 15 10 8 0 15 -4 15 -10z m-1260 -24 c0 -2 -9 -6
-20 -9 -11 -3 -18 -1 -14 4 5 9 34 13 34 5z m3670 -17 c0 -6 -4 -7 -10 -4 -5
3 -10 11 -10 16 0 6 5 7 10 4 6 -3 10 -11 10 -16z m-3662 -9 c-7 -11 -15 -15
-17 -9 -2 6 3 15 10 20 20 12 21 11 7 -11z m1257 -50 c3 -5 -3 -10 -14 -10
-12 0 -21 5 -21 10 0 6 6 10 14 10 8 0 18 -4 21 -10z m1289 -24 c-3 -15 -8
-25 -11 -23 -2 3 -1 17 3 31 3 15 8 25 11 23 2 -3 1 -17 -3 -31z m-420 -39 c3
4 6 -1 6 -9 0 -9 10 -18 23 -22 18 -5 20 -8 7 -16 -12 -8 -11 -10 6 -10 39 0
65 -51 80 -160 3 -19 9 -39 14 -45 6 -7 7 -15 4 -18 -3 -3 -3 -11 2 -18 4 -7
9 -29 10 -48 6 -71 13 -137 23 -211 15 -109 12 -148 -5 -70 -56 253 -77 331
-85 319 -6 -9 -9 -1 -9 24 0 54 -38 198 -59 223 -10 12 -26 23 -37 25 -10 2
-26 19 -35 36 -9 18 -23 41 -30 50 -8 10 7 1 32 -19 26 -21 49 -34 53 -31z
m-4 18 c0 -5 -5 -3 -10 5 -5 8 -10 20 -10 25 0 6 5 3 10 -5 5 -8 10 -19 10
-25z m-800 15 c0 -5 -4 -10 -10 -10 -5 0 -10 5 -10 10 0 6 5 10 10 10 6 0 10
-4 10 -10z m-76 -31 c-3 -5 -10 -7 -15 -3 -5 3 -7 10 -3 15 3 5 10 7 15 3 5
-3 7 -10 3 -15z m387 -2 c-13 -13 -26 -3 -16 12 3 6 11 8 17 5 6 -4 6 -10 -1
-17z m880 -72 c-11 -33 -20 -52 -20 -41 -1 20 32 121 36 109 2 -5 -6 -35 -16
-68z m-1267 14 c-3 -5 -10 -7 -15 -3 -5 3 -7 10 -3 15 3 5 10 7 15 3 5 -3 7
-10 3 -15z m186 11 c0 -5 -2 -10 -4 -10 -3 0 -8 5 -11 10 -3 6 -1 10 4 10 6 0
11 -4 11 -10z m80 6 c0 -3 -4 -8 -10 -11 -5 -3 -10 -1 -10 4 0 6 5 11 10 11 6
0 10 -2 10 -4z m30 -6 c0 -5 -2 -10 -4 -10 -3 0 -8 5 -11 10 -3 6 -1 10 4 10
6 0 11 -4 11 -10z m90 -5 c0 -8 -4 -15 -10 -15 -5 0 -10 7 -10 15 0 8 5 15 10
15 6 0 10 -7 10 -15z m290 11 c0 -3 -4 -8 -10 -11 -5 -3 -10 -1 -10 4 0 6 5
11 10 11 6 0 10 -2 10 -4z m199 -155 c1 -73 -6 -42 -12 49 -4 62 -3 73 3 40 5
-25 9 -65 9 -89z m-684 79 c0 -12 -10 -14 -45 -11 -56 4 -72 13 -40 22 40 12
85 6 85 -11z m110 0 c0 -17 -35 -25 -71 -16 -49 13 -19 36 41 33 19 -1 30 -7
30 -17z m370 0 c0 -11 -10 -14 -40 -13 -76 4 -85 6 -85 17 0 7 23 11 63 11 48
0 62 -3 62 -15z m-674 -13 c-13 -13 -26 -3 -16 12 3 6 11 8 17 5 6 -4 6 -10
-1 -17z m79 14 c0 -17 -18 -21 -24 -6 -3 9 0 15 9 15 8 0 15 -4 15 -9z m310
-6 c0 -8 -4 -15 -10 -15 -5 0 -10 7 -10 15 0 8 5 15 10 15 6 0 10 -7 10 -15z
m70 -1 c0 -8 -4 -12 -10 -9 -5 3 -10 10 -10 16 0 5 5 9 10 9 6 0 10 -7 10 -16z
m30 6 c0 -5 -4 -10 -10 -10 -5 0 -10 5 -10 10 0 6 5 10 10 10 6 0 10 -4 10
-10z m40 0 c0 -5 -7 -10 -15 -10 -8 0 -15 5 -15 10 0 6 7 10 15 10 8 0 15 -4
15 -10z m709 -84 c-7 -31 -14 -54 -17 -51 -3 3 1 30 8 60 7 30 15 53 18 51 2
-3 -2 -30 -9 -60z m-2509 7 c0 -14 -13 -38 -32 -56 -17 -18 -26 -24 -18 -14 8
10 8 17 2 17 -13 0 -8 35 9 67 15 27 39 19 39 -14z m1350 27 c0 -5 -4 -10 -10
-10 -5 0 -10 5 -10 10 0 6 5 10 10 10 6 0 10 -4 10 -10z m70 0 c0 -5 -11 -10
-25 -10 -14 0 -25 5 -25 10 0 6 11 10 25 10 14 0 25 -4 25 -10z m40 0 c0 -5
-4 -10 -10 -10 -5 0 -10 5 -10 10 0 6 5 10 10 10 6 0 10 -4 10 -10z m40 0 c0
-5 -4 -10 -10 -10 -5 0 -10 5 -10 10 0 6 5 10 10 10 6 0 10 -4 10 -10z m40 0
c0 -5 -7 -10 -16 -10 -8 0 -12 5 -9 10 3 6 10 10 16 10 5 0 9 -4 9 -10z m35 0
c3 -5 -1 -10 -10 -10 -9 0 -13 5 -10 10 3 6 8 10 10 10 2 0 7 -4 10 -10z m155
0 c0 -5 -4 -10 -10 -10 -5 0 -10 5 -10 10 0 6 5 10 10 10 6 0 10 -4 10 -10z
m30 0 c0 -5 -4 -10 -10 -10 -5 0 -10 5 -10 10 0 6 5 10 10 10 6 0 10 -4 10
-10z m40 0 c0 -5 -4 -10 -10 -10 -5 0 -10 5 -10 10 0 6 5 10 10 10 6 0 10 -4
10 -10z m60 0 c0 -5 -4 -10 -10 -10 -5 0 -10 5 -10 10 0 6 5 10 10 10 6 0 10
-4 10 -10z m85 0 c3 -5 1 -10 -4 -10 -6 0 -11 5 -11 10 0 6 2 10 4 10 3 0 8
-4 11 -10z m-665 -4 c0 -11 -19 -15 -25 -6 -3 5 1 10 9 10 9 0 16 -2 16 -4z
m380 -6 c0 -5 -2 -10 -4 -10 -3 0 -8 5 -11 10 -3 6 -1 10 4 10 6 0 11 -4 11
-10z m247 4 c-3 -3 -12 -4 -19 -1 -8 3 -5 6 6 6 11 1 17 -2 13 -5z m-2014
-103 c3 -14 0 -17 -14 -14 -11 3 -19 10 -19 15 0 5 5 6 10 3 6 -3 10 -1 10 4
0 17 7 13 13 -8z m27 15 c0 -3 -4 -8 -10 -11 -5 -3 -10 -1 -10 4 0 6 5 11 10
11 6 0 10 -2 10 -4z m-70 -25 c0 -3 -5 -13 -10 -21 -12 -19 -33 0 -25 23 6 14
35 13 35 -2z m497 -3 c0 -7 3 -20 7 -28 8 -19 -8 -45 -23 -36 -14 9 -14 31 -1
57 12 22 16 24 17 7z m928 -38 c-3 -6 -10 -10 -16 -10 -10 0 -12 33 -2 44 9 9
26 -22 18 -34z m119 29 c4 6 20 11 36 11 32 0 44 -28 31 -75 -6 -25 -13 -30
-37 -30 -21 0 -29 5 -29 17 0 10 -8 23 -17 30 -12 9 -16 20 -11 36 4 16 8 20
13 12 5 -9 9 -9 14 -1z m184 -47 c3 -45 1 -53 -14 -50 -9 2 -19 -3 -21 -9 -3
-8 3 -13 14 -13 26 0 55 -53 75 -135 l16 -70 -5 105 -4 105 21 -25 c22 -24 22
-25 39 -5 9 11 22 20 29 21 6 1 21 2 33 3 23 1 21 25 -2 27 -8 1 -21 2 -29 3
-13 1 -13 2 0 11 13 8 12 11 -3 23 -26 18 -19 61 11 65 13 2 22 -2 22 -9 0
-10 3 -10 12 -1 7 7 15 12 19 12 4 0 8 -56 8 -125 0 -103 -3 -125 -14 -125
-19 0 -19 -24 0 -40 9 -8 15 -28 14 -54 -1 -22 -3 -33 -6 -23 -2 9 -11 17 -19
17 -19 0 -18 -49 1 -56 11 -5 15 -23 15 -76 0 -63 -2 -69 -19 -63 -10 3 -28
-2 -42 -13 l-23 -19 35 -18 c18 -10 28 -20 22 -22 -7 -3 -29 5 -49 17 -36 23
-164 41 -164 24 0 -4 12 -22 27 -38 l28 -31 -35 31 c-73 63 -119 69 -166 18
l-34 -35 -134 -3 c-73 -2 -140 -7 -147 -12 -12 -7 -12 -5 0 9 11 14 31 17 100
17 47 0 91 4 97 8 7 4 15 34 19 67 9 77 33 187 34 158 1 -20 31 -35 31 -15 0
4 3 17 6 30 5 19 2 22 -20 22 -19 0 -26 5 -26 19 0 28 20 38 78 36 48 -2 52 0
52 22 0 21 -4 23 -50 23 -29 0 -50 5 -50 11 0 6 10 33 22 61 21 49 22 50 56
44 46 -7 92 3 92 21 0 9 -6 13 -13 10 -18 -7 -47 12 -30 19 9 4 9 11 1 29 -17
37 -5 51 43 50 l44 0 3 -53z m94 35 c6 -30 0 -47 -17 -47 -17 0 -25 22 -18 49
7 28 30 27 35 -2z m192 8 c3 -8 10 -15 16 -15 5 0 10 7 10 15 0 10 10 15 30
15 27 0 30 -3 30 -29 0 -17 -4 -32 -10 -36 -5 -3 -7 -12 -3 -20 3 -9 -1 -15
-8 -16 -8 0 -33 -2 -55 -3 -41 -3 -42 -2 -48 33 -10 59 -7 71 13 71 10 0 21
-7 25 -15z m-514 -10 c0 -8 -4 -15 -10 -15 -5 0 -10 7 -10 15 0 8 5 15 10 15
6 0 10 -7 10 -15z m897 -47 c-3 -7 -5 -2 -5 12 0 14 2 19 5 13 2 -7 2 -19 0
-25z m228 -8 c-9 -41 -17 -33 -9 9 4 17 9 30 11 27 3 -2 2 -19 -2 -36z m-814
-13 c-1 -12 -15 -9 -19 4 -3 6 1 10 8 8 6 -3 11 -8 11 -12z m217 -55 c7 7 12
8 12 4 0 -5 7 -3 16 5 22 18 34 -3 34 -63 l0 -48 -57 0 -58 0 3 52 c4 75 10
89 26 60 9 -17 14 -20 24 -10z m579 6 c-3 -8 -6 -5 -6 6 -1 11 2 17 5 13 3 -3
4 -12 1 -19z m-2107 -63 c0 -19 -4 -35 -10 -35 -11 0 -14 53 -3 63 11 12 13 8
13 -28z m1817 -117 c-2 -24 -4 -5 -4 42 0 47 2 66 4 43 2 -24 2 -62 0 -85z
m-1856 59 c-13 -13 -26 -3 -16 12 3 6 11 8 17 5 6 -4 6 -10 -1 -17z m2115
-102 c-8 -49 -14 -75 -15 -57 -1 40 22 183 26 162 2 -8 -3 -55 -11 -105z
m-1498 73 c-2 -22 -9 -34 -20 -36 -20 -4 -22 6 -8 42 14 37 32 32 28 -6z m956
-4 c43 3 74 -18 56 -39 -6 -7 -8 -21 -4 -31 5 -18 5 -18 -6 -1 -17 26 -43 22
-35 -5 6 -22 6 -22 -14 2 -24 30 -35 23 -21 -15 6 -17 15 -25 24 -22 8 3 27 2
43 -2 25 -7 28 -12 33 -62 4 -46 8 -54 24 -51 19 4 36 -13 36 -36 0 -10 -5
-10 -21 -1 -12 6 -46 19 -77 30 -55 19 -55 19 -90 -1 l-35 -21 7 32 c3 17 6
49 6 71 0 30 4 41 18 45 14 3 18 11 14 29 -2 13 -8 24 -13 24 -10 0 -12 31 -3
55 4 10 9 13 13 6 4 -6 24 -9 45 -7z m-1536 -117 c-8 -15 -12 -17 -18 -6 -5 7
-4 22 2 32 8 15 12 17 18 6 5 -7 4 -22 -2 -32z m1831 6 c-1 -21 -3 -30 -6 -20
-3 13 -10 16 -21 12 -40 -16 -46 -16 -28 -1 11 9 26 16 33 16 7 0 13 7 13 15
0 8 2 15 5 15 3 0 4 -17 4 -37z m-2184 -19 c0 -22 -5 -29 -20 -29 -20 0 -22
16 -10 53 8 24 30 6 30 -24z m2085 -11 c-1 -10 -20 -30 -44 -45 -49 -31 -56
-33 -56 -16 0 21 43 58 67 58 13 0 23 5 23 10 0 6 2 10 5 10 3 0 5 -8 5 -17z
m-1240 -60 c-9 -27 -55 -128 -88 -195 -10 -20 140 -7 330 29 22 4 29 0 42 -25
9 -17 18 -41 19 -54 3 -15 21 -33 54 -53 28 -16 65 -42 83 -56 32 -26 32 -27
15 -53 -10 -14 -21 -26 -26 -26 -5 0 -29 15 -53 33 -24 17 -81 58 -126 89
l-82 57 -111 -3 c-110 -3 -113 -4 -167 -40 -57 -38 -100 -51 -59 -18 l22 19
-25 6 c-31 8 -46 37 -19 37 10 0 24 7 31 15 7 8 16 12 21 9 5 -3 6 2 3 10 -3
9 24 75 62 151 54 106 70 131 78 118 6 -10 4 -28 -4 -50z m-468 25 c-9 -9 -12
-7 -12 12 0 19 3 21 12 12 9 -9 9 -15 0 -24z m-524 -10 c-6 -16 -36 -34 -44
-25 -9 9 15 37 33 37 8 0 13 -5 11 -12z m2339 -10 c-3 -8 -6 -5 -6 6 -1 11 2
17 5 13 3 -3 4 -12 1 -19z m-2348 -54 c-6 -7 -15 -11 -21 -8 -5 3 -4 12 3 20
6 7 15 11 21 8 5 -3 4 -12 -3 -20z m2017 -71 c-7 -7 -56 17 -56 27 0 7 13 4
30 -6 16 -10 28 -19 26 -21z m-943 -253 c52 0 21 -47 -42 -61 -54 -12 -63 -6
-22 16 37 19 39 28 9 44 -23 11 -23 11 2 6 14 -2 37 -5 53 -5z m472 -13 c7 -7
4 -8 -8 -3 -10 3 -25 6 -33 6 -8 0 -14 5 -14 11 0 12 40 2 55 -14z m425 -2 c0
-2 -18 -9 -40 -15 -22 -6 -55 -26 -74 -45 -18 -18 -38 -30 -42 -25 -5 4 -54
19 -109 33 -119 30 -173 50 -110 40 22 -3 51 -10 65 -15 14 -5 56 -16 93 -23
67 -13 69 -12 97 12 30 24 68 40 103 42 9 1 17 -1 17 -4z m467 -11 c-3 -3 -12
-4 -19 -1 -8 3 -5 6 6 6 11 1 17 -2 13 -5z m-129 -80 c-6 -21 -13 -33 -15 -26
-5 13 16 76 23 69 2 -2 -2 -21 -8 -43z m-1354 21 c-10 -8 -23 -15 -28 -15 -6
0 -1 7 10 15 10 8 23 15 28 15 6 0 1 -7 -10 -15z m1281 -5 c-3 -5 -12 -10 -18
-10 -7 0 -6 4 3 10 19 12 23 12 15 0z m-105 -55 c-30 -17 -40 -18 -40 -6 0 8
22 16 55 19 6 1 -1 -5 -15 -13z m-1429 -22 c-26 -3 -31 -7 -20 -14 9 -6 -3 -8
-36 -7 -33 1 -40 2 -20 5 17 3 34 9 40 14 5 5 23 8 40 7 29 -1 29 -1 -4 -5z
m66 1 c-3 -3 -12 -4 -19 -1 -8 3 -5 6 6 6 11 1 17 -2 13 -5z"/>
<path d="M2085 1690 c-3 -5 -1 -10 4 -10 6 0 11 5 11 10 0 6 -2 10 -4 10 -3 0
-8 -4 -11 -10z"/>
<path d="M1242 2465 c0 -16 2 -22 5 -12 2 9 2 23 0 30 -3 6 -5 -1 -5 -18z"/>
<path d="M1080 2130 c10 -6 11 -10 3 -10 -7 0 -13 -8 -13 -17 0 -15 2 -14 15
3 19 25 19 34 -2 34 -15 0 -16 -2 -3 -10z"/>
<path d="M3260 2560 c-8 -5 -10 -10 -5 -11 6 0 2 -4 -8 -7 -16 -7 -16 -9 -2
-29 9 -12 21 -20 28 -17 15 6 19 54 3 54 -6 0 -4 5 4 10 8 5 11 10 5 10 -5 0
-17 -5 -25 -10z"/>
<path d="M3270 2480 c0 -5 5 -10 10 -10 6 0 10 5 10 10 0 6 -4 10 -10 10 -5 0
-10 -4 -10 -10z"/>
<path d="M3263 2303 c9 -2 25 -2 35 0 9 3 1 5 -18 5 -19 0 -27 -2 -17 -5z"/>
<path d="M572 2200 c0 -14 2 -19 5 -12 2 6 2 18 0 25 -3 6 -5 1 -5 -13z"/>
<path d="M3600 2310 c-9 -6 -10 -10 -3 -10 6 0 15 5 18 10 8 12 4 12 -15 0z"/>
<path d="M1712 1077 c2 -12 6 -21 11 -19 4 1 18 2 32 2 18 0 25 5 25 19 0 15
-7 19 -36 19 -30 0 -35 -3 -32 -21z"/>
<path d="M1790 1079 c0 -14 7 -19 25 -19 14 0 28 0 33 0 4 0 7 8 7 18 0 12 -9
17 -32 19 -26 1 -33 -3 -33 -18z"/>
<path d="M1900 1080 c0 -26 17 -34 28 -14 8 15 10 15 16 -1 5 -14 9 -15 20 -6
10 8 16 9 21 1 10 -16 24 -2 18 19 -4 15 -15 19 -54 20 -42 0 -49 -2 -49 -19z"/>
<path d="M1630 970 c0 -32 14 -40 24 -14 10 27 7 44 -9 44 -10 0 -15 -10 -15
-30z"/>
<path d="M1670 969 c0 -38 24 -35 28 4 2 19 -1 27 -12 27 -11 0 -16 -10 -16
-31z"/>
<path d="M1712 973 c4 -39 28 -42 28 -4 0 21 -5 31 -16 31 -11 0 -14 -8 -12
-27z"/>
<path d="M1752 973 c4 -39 28 -42 28 -4 0 21 -5 31 -16 31 -11 0 -14 -8 -12
-27z"/>
<path d="M1794 984 c3 -9 6 -22 6 -30 0 -8 5 -14 10 -14 6 0 10 14 10 30 0 21
-5 30 -16 30 -11 0 -14 -5 -10 -16z"/>
<path d="M1842 976 c2 -15 8 -26 13 -26 15 0 12 43 -3 48 -10 3 -13 -4 -10
-22z"/>
<path d="M1892 970 c0 -19 2 -27 5 -17 2 9 2 25 0 35 -3 9 -5 1 -5 -18z"/>
<path d="M1920 976 c0 -31 8 -36 43 -29 20 4 27 11 27 29 0 31 -30 32 -31 2
l0 -23 -9 23 c-12 29 -30 28 -30 -2z"/>
<path d="M1902 905 c0 -16 4 -43 8 -60 l8 -30 0 35 c0 19 -4 46 -8 60 -8 24
-8 24 -8 -5z"/>
<path d="M1921 794 c0 -11 3 -14 6 -6 3 7 2 16 -1 19 -3 4 -6 -2 -5 -13z"/>
<path d="M2107 1288 c-8 -27 6 -44 21 -26 7 9 7 18 -3 31 -12 16 -13 16 -18
-5z"/>
</g>
</svg>
